<!-- Generator: Adobe Illustrator 19.0.0, SVG Export Plug-In  -->
<svg version="1.1"
	 xmlns="http://www.w3.org/2000/svg" xmlns:xlink="http://www.w3.org/1999/xlink" xmlns:a="http://ns.adobe.com/AdobeSVGViewerExtensions/3.0/"
	 x="0px" y="0px" width="125.4px" height="78.4px" viewBox="0 0 125.4 78.4" style="enable-background:new 0 0 125.4 78.4;"
	 xml:space="preserve">
<style type="text/css">
	.st0{fill:#3957A7;}
	.st1{fill:none;}
	.st2{fill:#FFFFFF;}
</style>
<defs>
</defs>
<g>
	<path class="st0" d="M125.4,74.2c0,2.3-1.9,4.2-4.2,4.2H4.2c-2.3,0-4.2-1.9-4.2-4.2v-70C0,1.9,1.9,0,4.2,0h117.1
		c2.3,0,4.2,1.9,4.2,4.2V74.2z"/>
	<g>
		<polygon class="st1" points="87.9,42.6 92.9,42.6 91.1,33.8 		"/>
		<polygon class="st2" points="55.4,27.4 51.6,51 57.7,51 61.6,27.4 		"/>
		<path class="st2" d="M46.4,27.4l-5.8,16.2l-0.7-3.5v0c0,0-1.4-4.3-5.6-7.7c-0.9-0.7-1.8-1.3-2.7-1.9L36.9,51h6.4L53,27.4H46.4z"/>
		<path class="st2" d="M95.4,27.4h-4.9c-2.3,0-2.8,1.8-2.8,1.8L78.5,51h6.4l1.3-3.5h7.8l0.7,3.5h5.6L95.4,27.4z M87.9,42.6l3.2-8.8
			l1.8,8.8H87.9z"/>
		<path class="st2" d="M70.4,34c0-2.7,6-2.3,8.6-0.9l0.9-5.1c0,0-2.7-1-5.5-1c-3,0-10.3,1.3-10.3,7.8c0,6.1,8.5,6.2,8.5,9.3
			c0,3.2-7.6,2.6-10.1,0.6L61.5,50c0,0,2.7,1.3,6.9,1.3c4.2,0,10.5-2.2,10.5-8.1C78.9,37.2,70.4,36.6,70.4,34z"/>
		<path class="st2" d="M39.9,40.1l-2.1-10.6c0,0-0.2-2.1-2.9-2.1h-9.7l-0.1,0.4c0,0,0,0,0,0c0,0,0,0,0,0c0,0,0.1,0,0.1,0
			c0,0,0,0,0.1,0c0,0,0.1,0,0.1,0c0,0,0.1,0,0.1,0c0.1,0,0.1,0,0.2,0.1c0.1,0,0.1,0,0.2,0.1c0.1,0,0.1,0,0.2,0.1
			c0.1,0,0.1,0,0.2,0.1c0.1,0,0.2,0,0.2,0.1c0.1,0,0.2,0.1,0.2,0.1c0.1,0,0.2,0.1,0.3,0.1c0.1,0,0.2,0.1,0.3,0.1
			c0.1,0,0.2,0.1,0.3,0.1c0.1,0.1,0.3,0.1,0.4,0.2c0.1,0,0.2,0.1,0.4,0.2c0.1,0,0.2,0.1,0.3,0.1c0.1,0.1,0.2,0.1,0.4,0.2
			c0.1,0,0.2,0.1,0.3,0.1c0.1,0.1,0.3,0.1,0.4,0.2c0.1,0.1,0.2,0.1,0.3,0.2c0.2,0.1,0.4,0.2,0.6,0.3c0.1,0,0.2,0.1,0.3,0.1
			c0.1,0.1,0.3,0.2,0.4,0.3c0.9,0.5,1.8,1.1,2.7,1.9C38.5,35.8,39.9,40.1,39.9,40.1z"/>
	</g>
</g>
</svg>
